<mxfile host="app.diagrams.net" modified="2023-07-05T19:05:40.060Z" agent="Mozilla/5.0 (Windows NT 10.0; Win64; x64) AppleWebKit/537.36 (KHTML, like Gecko) Chrome/114.0.0.0 Safari/537.36" etag="YgcFzaxU1JqcH-_s3ldw" version="21.3.7" type="device" pages="2">
  <diagram name="Wireframes" id="2cc2dc42-3aac-f2a9-1cec-7a8b7cbee084">
    <mxGraphModel dx="4780" dy="3087" grid="1" gridSize="10" guides="1" tooltips="1" connect="1" arrows="1" fold="1" page="1" pageScale="1" pageWidth="1100" pageHeight="850" background="none" math="0" shadow="0">
      <root>
        <mxCell id="0" />
        <mxCell id="1" parent="0" />
        <mxCell id="rPM3YHODY2QAmtToVd4L-13" value="" style="strokeWidth=1;shadow=0;dashed=0;align=center;html=1;shape=mxgraph.mockup.containers.browserWindow;rSize=0;strokeColor=#666666;mainText=,;recursiveResize=0;rounded=0;labelBackgroundColor=none;fontFamily=Verdana;fontSize=12;fontColor=#bdbcbc;" parent="1" vertex="1">
          <mxGeometry x="1370" y="1030" width="1140" height="820" as="geometry" />
        </mxCell>
        <mxCell id="rPM3YHODY2QAmtToVd4L-14" value="Page 1" style="strokeWidth=1;shadow=0;dashed=0;align=center;html=1;shape=mxgraph.mockup.containers.anchor;fontSize=17;fontColor=#666666;align=left;" parent="rPM3YHODY2QAmtToVd4L-13" vertex="1">
          <mxGeometry x="60" y="12" width="110" height="26" as="geometry" />
        </mxCell>
        <mxCell id="rPM3YHODY2QAmtToVd4L-15" value="https://www.default.com" style="strokeWidth=1;shadow=0;dashed=0;align=center;html=1;shape=mxgraph.mockup.containers.anchor;rSize=0;fontSize=17;fontColor=#666666;align=left;" parent="rPM3YHODY2QAmtToVd4L-13" vertex="1">
          <mxGeometry x="130" y="60" width="250" height="26" as="geometry" />
        </mxCell>
        <mxCell id="rPM3YHODY2QAmtToVd4L-16" value="Encode to Base 64" style="text;html=1;points=[];align=left;verticalAlign=top;spacingTop=-4;fontSize=30;fontFamily=Verdana" parent="rPM3YHODY2QAmtToVd4L-13" vertex="1">
          <mxGeometry x="30" y="140" width="340" height="50" as="geometry" />
        </mxCell>
        <mxCell id="rPM3YHODY2QAmtToVd4L-17" value="Convert" style="strokeWidth=1;shadow=0;dashed=0;align=center;html=1;shape=mxgraph.mockup.buttons.button;strokeColor=#36393d;mainText=;buttonStyle=round;fontSize=17;fontStyle=0;fillColor=#eeeeee;whiteSpace=wrap;rounded=0;labelBackgroundColor=none;" parent="rPM3YHODY2QAmtToVd4L-13" vertex="1">
          <mxGeometry x="30" y="460" width="120" height="30" as="geometry" />
        </mxCell>
        <mxCell id="rPM3YHODY2QAmtToVd4L-18" value="Hello world!" style="strokeWidth=1;shadow=0;dashed=0;align=center;html=1;shape=mxgraph.mockup.text.textBox;align=left;fontSize=17;spacingLeft=4;spacingTop=-3;whiteSpace=wrap;strokeColor=#36393d;mainText=;labelPosition=center;verticalLabelPosition=top;verticalAlign=bottom;spacingBottom=-31;fillColor=#eeeeee;" parent="rPM3YHODY2QAmtToVd4L-13" vertex="1">
          <mxGeometry x="30" y="201" width="820" height="235" as="geometry" />
        </mxCell>
        <mxCell id="rPM3YHODY2QAmtToVd4L-28" value="" style="strokeWidth=1;shadow=0;dashed=0;align=center;html=1;shape=mxgraph.mockup.text.textBox;align=left;fontSize=17;spacingLeft=4;spacingTop=-3;whiteSpace=wrap;strokeColor=#36393d;mainText=;labelPosition=center;verticalLabelPosition=top;verticalAlign=bottom;spacingBottom=-31;fillColor=#eeeeee;" parent="rPM3YHODY2QAmtToVd4L-13" vertex="1">
          <mxGeometry x="30" y="517" width="820" height="235" as="geometry" />
        </mxCell>
        <mxCell id="rPM3YHODY2QAmtToVd4L-29" value="Cancel" style="strokeWidth=1;shadow=0;dashed=0;align=center;html=1;shape=mxgraph.mockup.buttons.button;strokeColor=#666666;mainText=;buttonStyle=round;fontSize=17;fontStyle=0;fillColor=none;whiteSpace=wrap;rounded=0;labelBackgroundColor=none;" parent="rPM3YHODY2QAmtToVd4L-13" vertex="1">
          <mxGeometry x="170" y="460" width="120" height="30" as="geometry" />
        </mxCell>
        <mxCell id="VLw5lVdfSRDfY9Y6dXmb-11" value="" style="html=1;shadow=0;dashed=0;shape=mxgraph.bootstrap.rrect;rSize=5;fillColor=#E9ECEF;strokeColor=none;fillOpacity=100;labelPadding=0;" vertex="1" parent="rPM3YHODY2QAmtToVd4L-13">
          <mxGeometry x="310" y="465" width="540" height="20" as="geometry" />
        </mxCell>
        <mxCell id="7026571954dc6520-1" value="" style="strokeWidth=1;shadow=0;dashed=0;align=center;html=1;shape=mxgraph.mockup.containers.browserWindow;rSize=0;strokeColor=#666666;mainText=,;recursiveResize=0;rounded=0;labelBackgroundColor=none;fontFamily=Verdana;fontSize=12" parent="1" vertex="1">
          <mxGeometry x="25" y="30" width="1050" height="820" as="geometry" />
        </mxCell>
        <mxCell id="7026571954dc6520-2" value="Page 1" style="strokeWidth=1;shadow=0;dashed=0;align=center;html=1;shape=mxgraph.mockup.containers.anchor;fontSize=17;fontColor=#666666;align=left;" parent="7026571954dc6520-1" vertex="1">
          <mxGeometry x="60" y="12" width="110" height="26" as="geometry" />
        </mxCell>
        <mxCell id="7026571954dc6520-3" value="https://www.default.com" style="strokeWidth=1;shadow=0;dashed=0;align=center;html=1;shape=mxgraph.mockup.containers.anchor;rSize=0;fontSize=17;fontColor=#666666;align=left;" parent="7026571954dc6520-1" vertex="1">
          <mxGeometry x="130" y="60" width="250" height="26" as="geometry" />
        </mxCell>
        <mxCell id="7026571954dc6520-4" value="Encode to Base 64" style="text;html=1;points=[];align=left;verticalAlign=top;spacingTop=-4;fontSize=30;fontFamily=Verdana" parent="7026571954dc6520-1" vertex="1">
          <mxGeometry x="30" y="140" width="340" height="50" as="geometry" />
        </mxCell>
        <mxCell id="rPM3YHODY2QAmtToVd4L-1" value="Enter text here..." style="strokeWidth=1;shadow=0;dashed=0;align=center;html=1;shape=mxgraph.mockup.text.textBox;fontColor=#bdbcbc;align=left;fontSize=17;spacingLeft=4;spacingTop=-3;whiteSpace=wrap;strokeColor=#666666;mainText=;labelPosition=center;verticalLabelPosition=top;verticalAlign=bottom;spacingBottom=-31;" parent="7026571954dc6520-1" vertex="1">
          <mxGeometry x="30" y="205" width="820" height="235" as="geometry" />
        </mxCell>
        <mxCell id="rPM3YHODY2QAmtToVd4L-20" value="" style="strokeWidth=1;shadow=0;dashed=0;align=center;html=1;shape=mxgraph.mockup.text.textBox;align=left;fontSize=17;spacingLeft=4;spacingTop=-3;whiteSpace=wrap;strokeColor=#36393d;mainText=;labelPosition=center;verticalLabelPosition=top;verticalAlign=bottom;spacingBottom=-31;fillColor=#eeeeee;" parent="7026571954dc6520-1" vertex="1">
          <mxGeometry x="30" y="520" width="820" height="235" as="geometry" />
        </mxCell>
        <mxCell id="rPM3YHODY2QAmtToVd4L-33" value="Convert" style="strokeWidth=1;shadow=0;dashed=0;align=center;html=1;shape=mxgraph.mockup.buttons.button;strokeColor=#666666;mainText=;buttonStyle=round;fontSize=17;fontStyle=0;fillColor=none;whiteSpace=wrap;rounded=0;labelBackgroundColor=none;" parent="7026571954dc6520-1" vertex="1">
          <mxGeometry x="30" y="470" width="120" height="30" as="geometry" />
        </mxCell>
        <mxCell id="rPM3YHODY2QAmtToVd4L-34" value="Cancel" style="strokeWidth=1;shadow=0;dashed=0;align=center;html=1;shape=mxgraph.mockup.buttons.button;strokeColor=#36393d;mainText=;buttonStyle=round;fontSize=17;fontStyle=0;fillColor=#eeeeee;whiteSpace=wrap;rounded=0;labelBackgroundColor=none;" parent="7026571954dc6520-1" vertex="1">
          <mxGeometry x="170" y="470" width="120" height="30" as="geometry" />
        </mxCell>
        <mxCell id="rPM3YHODY2QAmtToVd4L-5" value="" style="strokeWidth=1;shadow=0;dashed=0;align=center;html=1;shape=mxgraph.mockup.containers.browserWindow;rSize=0;strokeColor=#666666;mainText=,;recursiveResize=0;rounded=0;labelBackgroundColor=none;fontFamily=Verdana;fontSize=12;fontColor=#bdbcbc;" parent="1" vertex="1">
          <mxGeometry x="1370" y="40" width="1050" height="820" as="geometry" />
        </mxCell>
        <mxCell id="rPM3YHODY2QAmtToVd4L-6" value="Page 1" style="strokeWidth=1;shadow=0;dashed=0;align=center;html=1;shape=mxgraph.mockup.containers.anchor;fontSize=17;fontColor=#666666;align=left;" parent="rPM3YHODY2QAmtToVd4L-5" vertex="1">
          <mxGeometry x="60" y="12" width="110" height="26" as="geometry" />
        </mxCell>
        <mxCell id="rPM3YHODY2QAmtToVd4L-7" value="https://www.default.com" style="strokeWidth=1;shadow=0;dashed=0;align=center;html=1;shape=mxgraph.mockup.containers.anchor;rSize=0;fontSize=17;fontColor=#666666;align=left;" parent="rPM3YHODY2QAmtToVd4L-5" vertex="1">
          <mxGeometry x="130" y="60" width="250" height="26" as="geometry" />
        </mxCell>
        <mxCell id="rPM3YHODY2QAmtToVd4L-8" value="Encode to Base 64" style="text;html=1;points=[];align=left;verticalAlign=top;spacingTop=-4;fontSize=30;fontFamily=Verdana" parent="rPM3YHODY2QAmtToVd4L-5" vertex="1">
          <mxGeometry x="30" y="140" width="340" height="50" as="geometry" />
        </mxCell>
        <mxCell id="rPM3YHODY2QAmtToVd4L-12" value="Hello world!" style="strokeWidth=1;shadow=0;dashed=0;align=center;html=1;shape=mxgraph.mockup.text.textBox;fontColor=#050505;align=left;fontSize=17;spacingLeft=4;spacingTop=-3;whiteSpace=wrap;strokeColor=#666666;mainText=;labelPosition=center;verticalLabelPosition=top;verticalAlign=bottom;spacingBottom=-31;" parent="rPM3YHODY2QAmtToVd4L-5" vertex="1">
          <mxGeometry x="30" y="201" width="820" height="235" as="geometry" />
        </mxCell>
        <mxCell id="rPM3YHODY2QAmtToVd4L-31" value="Convert" style="strokeWidth=1;shadow=0;dashed=0;align=center;html=1;shape=mxgraph.mockup.buttons.button;strokeColor=#666666;mainText=;buttonStyle=round;fontSize=17;fontStyle=0;fillColor=none;whiteSpace=wrap;rounded=0;labelBackgroundColor=none;" parent="rPM3YHODY2QAmtToVd4L-5" vertex="1">
          <mxGeometry x="30" y="460" width="120" height="30" as="geometry" />
        </mxCell>
        <mxCell id="rPM3YHODY2QAmtToVd4L-32" value="Cancel" style="strokeWidth=1;shadow=0;dashed=0;align=center;html=1;shape=mxgraph.mockup.buttons.button;strokeColor=#36393d;mainText=;buttonStyle=round;fontSize=17;fontStyle=0;fillColor=#eeeeee;whiteSpace=wrap;rounded=0;labelBackgroundColor=none;" parent="rPM3YHODY2QAmtToVd4L-5" vertex="1">
          <mxGeometry x="170" y="460" width="120" height="30" as="geometry" />
        </mxCell>
        <mxCell id="rPM3YHODY2QAmtToVd4L-35" value="" style="strokeWidth=1;shadow=0;dashed=0;align=center;html=1;shape=mxgraph.mockup.text.textBox;align=left;fontSize=17;spacingLeft=4;spacingTop=-3;whiteSpace=wrap;strokeColor=#36393d;mainText=;labelPosition=center;verticalLabelPosition=top;verticalAlign=bottom;spacingBottom=-31;fillColor=#eeeeee;" parent="rPM3YHODY2QAmtToVd4L-5" vertex="1">
          <mxGeometry x="30" y="520" width="820" height="235" as="geometry" />
        </mxCell>
        <mxCell id="rPM3YHODY2QAmtToVd4L-11" value="Text added" style="shape=flexArrow;endArrow=classic;html=1;rounded=0;fontSize=28;align=center;spacingLeft=0;spacingRight=20;labelPosition=center;verticalLabelPosition=bottom;verticalAlign=top;spacingBottom=-3;spacingTop=20;" parent="1" edge="1">
          <mxGeometry width="50" height="50" relative="1" as="geometry">
            <mxPoint x="1180" y="439.52" as="sourcePoint" />
            <mxPoint x="1280" y="439.52" as="targetPoint" />
          </mxGeometry>
        </mxCell>
        <mxCell id="rPM3YHODY2QAmtToVd4L-19" value="Random pause 2" style="shape=flexArrow;endArrow=classic;html=1;rounded=0;fontSize=28;labelPosition=left;verticalLabelPosition=middle;align=right;verticalAlign=middle;spacingLeft=0;spacingRight=20;" parent="1" edge="1">
          <mxGeometry x="-0.0085" width="50" height="50" relative="1" as="geometry">
            <mxPoint x="1894.23" y="2861" as="sourcePoint" />
            <mxPoint x="1894.23" y="2951" as="targetPoint" />
            <mxPoint as="offset" />
          </mxGeometry>
        </mxCell>
        <mxCell id="rPM3YHODY2QAmtToVd4L-36" value="" style="strokeWidth=1;shadow=0;dashed=0;align=center;html=1;shape=mxgraph.mockup.containers.browserWindow;rSize=0;strokeColor=#666666;mainText=,;recursiveResize=0;rounded=0;labelBackgroundColor=none;fontFamily=Verdana;fontSize=12;fontColor=#bdbcbc;" parent="1" vertex="1">
          <mxGeometry x="1370" y="2010" width="1050" height="820" as="geometry" />
        </mxCell>
        <mxCell id="rPM3YHODY2QAmtToVd4L-37" value="Page 1" style="strokeWidth=1;shadow=0;dashed=0;align=center;html=1;shape=mxgraph.mockup.containers.anchor;fontSize=17;fontColor=#666666;align=left;" parent="rPM3YHODY2QAmtToVd4L-36" vertex="1">
          <mxGeometry x="60" y="12" width="110" height="26" as="geometry" />
        </mxCell>
        <mxCell id="rPM3YHODY2QAmtToVd4L-38" value="https://www.default.com" style="strokeWidth=1;shadow=0;dashed=0;align=center;html=1;shape=mxgraph.mockup.containers.anchor;rSize=0;fontSize=17;fontColor=#666666;align=left;" parent="rPM3YHODY2QAmtToVd4L-36" vertex="1">
          <mxGeometry x="130" y="60" width="250" height="26" as="geometry" />
        </mxCell>
        <mxCell id="rPM3YHODY2QAmtToVd4L-39" value="Encode to Base 64" style="text;html=1;points=[];align=left;verticalAlign=top;spacingTop=-4;fontSize=30;fontFamily=Verdana" parent="rPM3YHODY2QAmtToVd4L-36" vertex="1">
          <mxGeometry x="30" y="140" width="340" height="50" as="geometry" />
        </mxCell>
        <mxCell id="rPM3YHODY2QAmtToVd4L-40" value="Convert" style="strokeWidth=1;shadow=0;dashed=0;align=center;html=1;shape=mxgraph.mockup.buttons.button;strokeColor=#36393d;mainText=;buttonStyle=round;fontSize=17;fontStyle=0;fillColor=#eeeeee;whiteSpace=wrap;rounded=0;labelBackgroundColor=none;" parent="rPM3YHODY2QAmtToVd4L-36" vertex="1">
          <mxGeometry x="30" y="460" width="120" height="30" as="geometry" />
        </mxCell>
        <mxCell id="rPM3YHODY2QAmtToVd4L-41" value="Hello world!" style="strokeWidth=1;shadow=0;dashed=0;align=center;html=1;shape=mxgraph.mockup.text.textBox;align=left;fontSize=17;spacingLeft=4;spacingTop=-3;whiteSpace=wrap;strokeColor=#36393d;mainText=;labelPosition=center;verticalLabelPosition=top;verticalAlign=bottom;spacingBottom=-31;fillColor=#eeeeee;" parent="rPM3YHODY2QAmtToVd4L-36" vertex="1">
          <mxGeometry x="30" y="201" width="820" height="235" as="geometry" />
        </mxCell>
        <mxCell id="rPM3YHODY2QAmtToVd4L-42" value="S" style="strokeWidth=1;shadow=0;dashed=0;align=center;html=1;shape=mxgraph.mockup.text.textBox;align=left;fontSize=17;spacingLeft=4;spacingTop=-3;whiteSpace=wrap;strokeColor=#36393d;mainText=;labelPosition=center;verticalLabelPosition=top;verticalAlign=bottom;spacingBottom=-31;fillColor=#eeeeee;" parent="rPM3YHODY2QAmtToVd4L-36" vertex="1">
          <mxGeometry x="30" y="517" width="820" height="235" as="geometry" />
        </mxCell>
        <mxCell id="rPM3YHODY2QAmtToVd4L-43" value="Cancel" style="strokeWidth=1;shadow=0;dashed=0;align=center;html=1;shape=mxgraph.mockup.buttons.button;strokeColor=#666666;mainText=;buttonStyle=round;fontSize=17;fontStyle=0;fillColor=none;whiteSpace=wrap;rounded=0;labelBackgroundColor=none;" parent="rPM3YHODY2QAmtToVd4L-36" vertex="1">
          <mxGeometry x="170" y="460" width="120" height="30" as="geometry" />
        </mxCell>
        <mxCell id="VLw5lVdfSRDfY9Y6dXmb-3" value="" style="html=1;shadow=0;dashed=0;shape=mxgraph.bootstrap.rrect;rSize=5;fillColor=#E9ECEF;strokeColor=none;fillOpacity=100;labelPadding=0;" vertex="1" parent="rPM3YHODY2QAmtToVd4L-36">
          <mxGeometry x="310" y="465" width="540" height="20" as="geometry" />
        </mxCell>
        <mxCell id="VLw5lVdfSRDfY9Y6dXmb-4" value="" style="html=1;shadow=0;dashed=0;shape=mxgraph.bootstrap.leftButton;rSize=5;fillColor=#1CA5B8;strokeColor=none;resizeHeight=1;" vertex="1" parent="VLw5lVdfSRDfY9Y6dXmb-3">
          <mxGeometry width="50" height="20" relative="1" as="geometry" />
        </mxCell>
        <mxCell id="rPM3YHODY2QAmtToVd4L-44" value="Convert" style="shape=flexArrow;endArrow=classic;html=1;rounded=0;fontSize=28;labelPosition=left;verticalLabelPosition=middle;align=right;verticalAlign=middle;spacingLeft=0;spacingRight=20;" parent="1" edge="1">
          <mxGeometry x="-0.0123" width="50" height="50" relative="1" as="geometry">
            <mxPoint x="1880" y="900" as="sourcePoint" />
            <mxPoint x="1880" y="990" as="targetPoint" />
            <mxPoint as="offset" />
          </mxGeometry>
        </mxCell>
        <mxCell id="rPM3YHODY2QAmtToVd4L-45" value="" style="strokeWidth=1;shadow=0;dashed=0;align=center;html=1;shape=mxgraph.mockup.containers.browserWindow;rSize=0;strokeColor=#666666;mainText=,;recursiveResize=0;rounded=0;labelBackgroundColor=none;fontFamily=Verdana;fontSize=12;fontColor=#bdbcbc;" parent="1" vertex="1">
          <mxGeometry x="1370" y="2980" width="1050" height="820" as="geometry" />
        </mxCell>
        <mxCell id="rPM3YHODY2QAmtToVd4L-46" value="Page 1" style="strokeWidth=1;shadow=0;dashed=0;align=center;html=1;shape=mxgraph.mockup.containers.anchor;fontSize=17;fontColor=#666666;align=left;" parent="rPM3YHODY2QAmtToVd4L-45" vertex="1">
          <mxGeometry x="60" y="12" width="110" height="26" as="geometry" />
        </mxCell>
        <mxCell id="rPM3YHODY2QAmtToVd4L-47" value="https://www.default.com" style="strokeWidth=1;shadow=0;dashed=0;align=center;html=1;shape=mxgraph.mockup.containers.anchor;rSize=0;fontSize=17;fontColor=#666666;align=left;" parent="rPM3YHODY2QAmtToVd4L-45" vertex="1">
          <mxGeometry x="130" y="60" width="250" height="26" as="geometry" />
        </mxCell>
        <mxCell id="rPM3YHODY2QAmtToVd4L-48" value="Encode to Base 64" style="text;html=1;points=[];align=left;verticalAlign=top;spacingTop=-4;fontSize=30;fontFamily=Verdana" parent="rPM3YHODY2QAmtToVd4L-45" vertex="1">
          <mxGeometry x="30" y="140" width="340" height="50" as="geometry" />
        </mxCell>
        <mxCell id="rPM3YHODY2QAmtToVd4L-49" value="Convert" style="strokeWidth=1;shadow=0;dashed=0;align=center;html=1;shape=mxgraph.mockup.buttons.button;strokeColor=#36393d;mainText=;buttonStyle=round;fontSize=17;fontStyle=0;fillColor=#eeeeee;whiteSpace=wrap;rounded=0;labelBackgroundColor=none;" parent="rPM3YHODY2QAmtToVd4L-45" vertex="1">
          <mxGeometry x="30" y="460" width="120" height="30" as="geometry" />
        </mxCell>
        <mxCell id="rPM3YHODY2QAmtToVd4L-50" value="Hello world!" style="strokeWidth=1;shadow=0;dashed=0;align=center;html=1;shape=mxgraph.mockup.text.textBox;align=left;fontSize=17;spacingLeft=4;spacingTop=-3;whiteSpace=wrap;strokeColor=#36393d;mainText=;labelPosition=center;verticalLabelPosition=top;verticalAlign=bottom;spacingBottom=-31;fillColor=#eeeeee;" parent="rPM3YHODY2QAmtToVd4L-45" vertex="1">
          <mxGeometry x="30" y="201" width="820" height="235" as="geometry" />
        </mxCell>
        <mxCell id="rPM3YHODY2QAmtToVd4L-51" value="SG" style="strokeWidth=1;shadow=0;dashed=0;align=center;html=1;shape=mxgraph.mockup.text.textBox;align=left;fontSize=17;spacingLeft=4;spacingTop=-3;whiteSpace=wrap;strokeColor=#36393d;mainText=;labelPosition=center;verticalLabelPosition=top;verticalAlign=bottom;spacingBottom=-31;fillColor=#eeeeee;" parent="rPM3YHODY2QAmtToVd4L-45" vertex="1">
          <mxGeometry x="30" y="517" width="820" height="235" as="geometry" />
        </mxCell>
        <mxCell id="rPM3YHODY2QAmtToVd4L-52" value="Cancel" style="strokeWidth=1;shadow=0;dashed=0;align=center;html=1;shape=mxgraph.mockup.buttons.button;strokeColor=#666666;mainText=;buttonStyle=round;fontSize=17;fontStyle=0;fillColor=none;whiteSpace=wrap;rounded=0;labelBackgroundColor=none;" parent="rPM3YHODY2QAmtToVd4L-45" vertex="1">
          <mxGeometry x="170" y="460" width="120" height="30" as="geometry" />
        </mxCell>
        <mxCell id="VLw5lVdfSRDfY9Y6dXmb-7" value="" style="html=1;shadow=0;dashed=0;shape=mxgraph.bootstrap.rrect;rSize=5;fillColor=#E9ECEF;strokeColor=none;fillOpacity=100;labelPadding=0;" vertex="1" parent="rPM3YHODY2QAmtToVd4L-45">
          <mxGeometry x="310" y="465" width="540" height="20" as="geometry" />
        </mxCell>
        <mxCell id="VLw5lVdfSRDfY9Y6dXmb-8" value="" style="html=1;shadow=0;dashed=0;shape=mxgraph.bootstrap.leftButton;rSize=5;fillColor=#1CA5B8;strokeColor=none;resizeHeight=1;" vertex="1" parent="VLw5lVdfSRDfY9Y6dXmb-7">
          <mxGeometry width="150" height="20" relative="1" as="geometry" />
        </mxCell>
        <mxCell id="rPM3YHODY2QAmtToVd4L-54" value="Random pause 1" style="shape=flexArrow;endArrow=classic;html=1;rounded=0;fontSize=28;labelPosition=left;verticalLabelPosition=middle;align=right;verticalAlign=middle;spacingLeft=0;spacingRight=20;" parent="1" edge="1">
          <mxGeometry x="-0.0085" width="50" height="50" relative="1" as="geometry">
            <mxPoint x="1890" y="1890" as="sourcePoint" />
            <mxPoint x="1890" y="1980" as="targetPoint" />
            <mxPoint as="offset" />
          </mxGeometry>
        </mxCell>
        <mxCell id="rPM3YHODY2QAmtToVd4L-55" value="Random pause 3" style="shape=flexArrow;endArrow=classic;html=1;rounded=0;fontSize=28;labelPosition=left;verticalLabelPosition=middle;align=right;verticalAlign=middle;spacingLeft=0;spacingRight=20;" parent="1" edge="1">
          <mxGeometry x="-0.0085" width="50" height="50" relative="1" as="geometry">
            <mxPoint x="1894.23" y="3830" as="sourcePoint" />
            <mxPoint x="1894.23" y="3920" as="targetPoint" />
            <mxPoint as="offset" />
          </mxGeometry>
        </mxCell>
        <mxCell id="rPM3YHODY2QAmtToVd4L-56" value="" style="strokeWidth=1;shadow=0;dashed=0;align=center;html=1;shape=mxgraph.mockup.containers.browserWindow;rSize=0;strokeColor=#666666;mainText=,;recursiveResize=0;rounded=0;labelBackgroundColor=none;fontFamily=Verdana;fontSize=12;fontColor=#bdbcbc;" parent="1" vertex="1">
          <mxGeometry x="1370" y="3949" width="1050" height="820" as="geometry" />
        </mxCell>
        <mxCell id="rPM3YHODY2QAmtToVd4L-57" value="Page 1" style="strokeWidth=1;shadow=0;dashed=0;align=center;html=1;shape=mxgraph.mockup.containers.anchor;fontSize=17;fontColor=#666666;align=left;" parent="rPM3YHODY2QAmtToVd4L-56" vertex="1">
          <mxGeometry x="60" y="12" width="110" height="26" as="geometry" />
        </mxCell>
        <mxCell id="rPM3YHODY2QAmtToVd4L-58" value="https://www.default.com" style="strokeWidth=1;shadow=0;dashed=0;align=center;html=1;shape=mxgraph.mockup.containers.anchor;rSize=0;fontSize=17;fontColor=#666666;align=left;" parent="rPM3YHODY2QAmtToVd4L-56" vertex="1">
          <mxGeometry x="130" y="60" width="250" height="26" as="geometry" />
        </mxCell>
        <mxCell id="rPM3YHODY2QAmtToVd4L-59" value="Encode to Base 64" style="text;html=1;points=[];align=left;verticalAlign=top;spacingTop=-4;fontSize=30;fontFamily=Verdana" parent="rPM3YHODY2QAmtToVd4L-56" vertex="1">
          <mxGeometry x="30" y="140" width="340" height="50" as="geometry" />
        </mxCell>
        <mxCell id="rPM3YHODY2QAmtToVd4L-60" value="Convert" style="strokeWidth=1;shadow=0;dashed=0;align=center;html=1;shape=mxgraph.mockup.buttons.button;strokeColor=#36393d;mainText=;buttonStyle=round;fontSize=17;fontStyle=0;fillColor=#eeeeee;whiteSpace=wrap;rounded=0;labelBackgroundColor=none;" parent="rPM3YHODY2QAmtToVd4L-56" vertex="1">
          <mxGeometry x="30" y="460" width="120" height="30" as="geometry" />
        </mxCell>
        <mxCell id="rPM3YHODY2QAmtToVd4L-61" value="Hello world!" style="strokeWidth=1;shadow=0;dashed=0;align=center;html=1;shape=mxgraph.mockup.text.textBox;align=left;fontSize=17;spacingLeft=4;spacingTop=-3;whiteSpace=wrap;strokeColor=#36393d;mainText=;labelPosition=center;verticalLabelPosition=top;verticalAlign=bottom;spacingBottom=-31;fillColor=#eeeeee;" parent="rPM3YHODY2QAmtToVd4L-56" vertex="1">
          <mxGeometry x="30" y="201" width="820" height="235" as="geometry" />
        </mxCell>
        <mxCell id="rPM3YHODY2QAmtToVd4L-62" value="SGV" style="strokeWidth=1;shadow=0;dashed=0;align=center;html=1;shape=mxgraph.mockup.text.textBox;align=left;fontSize=17;spacingLeft=4;spacingTop=-3;whiteSpace=wrap;strokeColor=#36393d;mainText=;labelPosition=center;verticalLabelPosition=top;verticalAlign=bottom;spacingBottom=-31;fillColor=#eeeeee;" parent="rPM3YHODY2QAmtToVd4L-56" vertex="1">
          <mxGeometry x="30" y="517" width="820" height="235" as="geometry" />
        </mxCell>
        <mxCell id="rPM3YHODY2QAmtToVd4L-63" value="Cancel" style="strokeWidth=1;shadow=0;dashed=0;align=center;html=1;shape=mxgraph.mockup.buttons.button;strokeColor=#666666;mainText=;buttonStyle=round;fontSize=17;fontStyle=0;fillColor=none;whiteSpace=wrap;rounded=0;labelBackgroundColor=none;" parent="rPM3YHODY2QAmtToVd4L-56" vertex="1">
          <mxGeometry x="170" y="460" width="120" height="30" as="geometry" />
        </mxCell>
        <mxCell id="VLw5lVdfSRDfY9Y6dXmb-9" value="" style="html=1;shadow=0;dashed=0;shape=mxgraph.bootstrap.rrect;rSize=5;fillColor=#E9ECEF;strokeColor=none;fillOpacity=100;labelPadding=0;" vertex="1" parent="rPM3YHODY2QAmtToVd4L-56">
          <mxGeometry x="310" y="465" width="540" height="20" as="geometry" />
        </mxCell>
        <mxCell id="VLw5lVdfSRDfY9Y6dXmb-10" value="" style="html=1;shadow=0;dashed=0;shape=mxgraph.bootstrap.leftButton;rSize=5;fillColor=#1CA5B8;strokeColor=none;resizeHeight=1;" vertex="1" parent="VLw5lVdfSRDfY9Y6dXmb-9">
          <mxGeometry width="270" height="20" relative="1" as="geometry" />
        </mxCell>
        <mxCell id="rPM3YHODY2QAmtToVd4L-64" value="Random pause N, processing is complete" style="shape=flexArrow;endArrow=classic;html=1;rounded=0;fontSize=28;labelPosition=left;verticalLabelPosition=middle;align=right;verticalAlign=middle;spacingLeft=0;spacingRight=20;" parent="1" edge="1">
          <mxGeometry x="-0.0085" width="50" height="50" relative="1" as="geometry">
            <mxPoint x="1894.23" y="4810" as="sourcePoint" />
            <mxPoint x="1894.23" y="4900" as="targetPoint" />
            <mxPoint as="offset" />
          </mxGeometry>
        </mxCell>
        <mxCell id="rPM3YHODY2QAmtToVd4L-65" value="" style="strokeWidth=1;shadow=0;dashed=0;align=center;html=1;shape=mxgraph.mockup.containers.browserWindow;rSize=0;strokeColor=#666666;mainText=,;recursiveResize=0;rounded=0;labelBackgroundColor=none;fontFamily=Verdana;fontSize=12;fontColor=#bdbcbc;" parent="1" vertex="1">
          <mxGeometry x="1370" y="4929" width="1050" height="820" as="geometry" />
        </mxCell>
        <mxCell id="rPM3YHODY2QAmtToVd4L-66" value="Page 1" style="strokeWidth=1;shadow=0;dashed=0;align=center;html=1;shape=mxgraph.mockup.containers.anchor;fontSize=17;fontColor=#666666;align=left;" parent="rPM3YHODY2QAmtToVd4L-65" vertex="1">
          <mxGeometry x="60" y="12" width="110" height="26" as="geometry" />
        </mxCell>
        <mxCell id="rPM3YHODY2QAmtToVd4L-67" value="https://www.default.com" style="strokeWidth=1;shadow=0;dashed=0;align=center;html=1;shape=mxgraph.mockup.containers.anchor;rSize=0;fontSize=17;fontColor=#666666;align=left;" parent="rPM3YHODY2QAmtToVd4L-65" vertex="1">
          <mxGeometry x="130" y="60" width="250" height="26" as="geometry" />
        </mxCell>
        <mxCell id="rPM3YHODY2QAmtToVd4L-68" value="Encode to Base 64" style="text;html=1;points=[];align=left;verticalAlign=top;spacingTop=-4;fontSize=30;fontFamily=Verdana" parent="rPM3YHODY2QAmtToVd4L-65" vertex="1">
          <mxGeometry x="30" y="140" width="340" height="50" as="geometry" />
        </mxCell>
        <mxCell id="rPM3YHODY2QAmtToVd4L-69" value="Convert" style="strokeWidth=1;shadow=0;dashed=0;align=center;html=1;shape=mxgraph.mockup.buttons.button;mainText=;buttonStyle=round;fontSize=17;fontStyle=0;whiteSpace=wrap;rounded=0;labelBackgroundColor=none;" parent="rPM3YHODY2QAmtToVd4L-65" vertex="1">
          <mxGeometry x="30" y="460" width="120" height="30" as="geometry" />
        </mxCell>
        <mxCell id="rPM3YHODY2QAmtToVd4L-70" value="Hello world!" style="strokeWidth=1;shadow=0;dashed=0;align=center;html=1;shape=mxgraph.mockup.text.textBox;align=left;fontSize=17;spacingLeft=4;spacingTop=-3;whiteSpace=wrap;mainText=;labelPosition=center;verticalLabelPosition=top;verticalAlign=bottom;spacingBottom=-31;" parent="rPM3YHODY2QAmtToVd4L-65" vertex="1">
          <mxGeometry x="30" y="201" width="820" height="235" as="geometry" />
        </mxCell>
        <mxCell id="rPM3YHODY2QAmtToVd4L-71" value="SGVsbG8sIFdvcmxkIQ==" style="strokeWidth=1;shadow=0;dashed=0;align=center;html=1;shape=mxgraph.mockup.text.textBox;align=left;fontSize=17;spacingLeft=4;spacingTop=-3;whiteSpace=wrap;strokeColor=#36393d;mainText=;labelPosition=center;verticalLabelPosition=top;verticalAlign=bottom;spacingBottom=-31;fillColor=#eeeeee;" parent="rPM3YHODY2QAmtToVd4L-65" vertex="1">
          <mxGeometry x="30" y="517" width="820" height="235" as="geometry" />
        </mxCell>
        <mxCell id="rPM3YHODY2QAmtToVd4L-72" value="Cancel" style="strokeWidth=1;shadow=0;dashed=0;align=center;html=1;shape=mxgraph.mockup.buttons.button;strokeColor=#36393d;mainText=;buttonStyle=round;fontSize=17;fontStyle=0;fillColor=#eeeeee;whiteSpace=wrap;rounded=0;labelBackgroundColor=none;" parent="rPM3YHODY2QAmtToVd4L-65" vertex="1">
          <mxGeometry x="170" y="460" width="120" height="30" as="geometry" />
        </mxCell>
        <mxCell id="rPM3YHODY2QAmtToVd4L-81" value="" style="strokeWidth=1;shadow=0;dashed=0;align=center;html=1;shape=mxgraph.mockup.containers.browserWindow;rSize=0;strokeColor=#666666;mainText=,;recursiveResize=0;rounded=0;labelBackgroundColor=none;fontFamily=Verdana;fontSize=12;fontColor=#bdbcbc;" parent="1" vertex="1">
          <mxGeometry x="2730" y="2980" width="1050" height="820" as="geometry" />
        </mxCell>
        <mxCell id="rPM3YHODY2QAmtToVd4L-82" value="Page 1" style="strokeWidth=1;shadow=0;dashed=0;align=center;html=1;shape=mxgraph.mockup.containers.anchor;fontSize=17;fontColor=#666666;align=left;" parent="rPM3YHODY2QAmtToVd4L-81" vertex="1">
          <mxGeometry x="60" y="12" width="110" height="26" as="geometry" />
        </mxCell>
        <mxCell id="rPM3YHODY2QAmtToVd4L-83" value="https://www.default.com" style="strokeWidth=1;shadow=0;dashed=0;align=center;html=1;shape=mxgraph.mockup.containers.anchor;rSize=0;fontSize=17;fontColor=#666666;align=left;" parent="rPM3YHODY2QAmtToVd4L-81" vertex="1">
          <mxGeometry x="130" y="60" width="250" height="26" as="geometry" />
        </mxCell>
        <mxCell id="rPM3YHODY2QAmtToVd4L-84" value="Encode to Base 64" style="text;html=1;points=[];align=left;verticalAlign=top;spacingTop=-4;fontSize=30;fontFamily=Verdana" parent="rPM3YHODY2QAmtToVd4L-81" vertex="1">
          <mxGeometry x="30" y="140" width="340" height="50" as="geometry" />
        </mxCell>
        <mxCell id="rPM3YHODY2QAmtToVd4L-85" value="Hello world!" style="strokeWidth=1;shadow=0;dashed=0;align=center;html=1;shape=mxgraph.mockup.text.textBox;fontColor=#050505;align=left;fontSize=17;spacingLeft=4;spacingTop=-3;whiteSpace=wrap;strokeColor=#666666;mainText=;labelPosition=center;verticalLabelPosition=top;verticalAlign=bottom;spacingBottom=-31;" parent="rPM3YHODY2QAmtToVd4L-81" vertex="1">
          <mxGeometry x="30" y="201" width="820" height="235" as="geometry" />
        </mxCell>
        <mxCell id="rPM3YHODY2QAmtToVd4L-86" value="Convert" style="strokeWidth=1;shadow=0;dashed=0;align=center;html=1;shape=mxgraph.mockup.buttons.button;strokeColor=#666666;mainText=;buttonStyle=round;fontSize=17;fontStyle=0;fillColor=none;whiteSpace=wrap;rounded=0;labelBackgroundColor=none;" parent="rPM3YHODY2QAmtToVd4L-81" vertex="1">
          <mxGeometry x="30" y="460" width="120" height="30" as="geometry" />
        </mxCell>
        <mxCell id="rPM3YHODY2QAmtToVd4L-87" value="Cancel" style="strokeWidth=1;shadow=0;dashed=0;align=center;html=1;shape=mxgraph.mockup.buttons.button;strokeColor=#36393d;mainText=;buttonStyle=round;fontSize=17;fontStyle=0;fillColor=#eeeeee;whiteSpace=wrap;rounded=0;labelBackgroundColor=none;" parent="rPM3YHODY2QAmtToVd4L-81" vertex="1">
          <mxGeometry x="170" y="460" width="120" height="30" as="geometry" />
        </mxCell>
        <mxCell id="rPM3YHODY2QAmtToVd4L-88" value="SG" style="strokeWidth=1;shadow=0;dashed=0;align=center;html=1;shape=mxgraph.mockup.text.textBox;align=left;fontSize=17;spacingLeft=4;spacingTop=-3;whiteSpace=wrap;strokeColor=#36393d;mainText=;labelPosition=center;verticalLabelPosition=top;verticalAlign=bottom;spacingBottom=-31;fillColor=#eeeeee;" parent="rPM3YHODY2QAmtToVd4L-81" vertex="1">
          <mxGeometry x="30" y="520" width="820" height="235" as="geometry" />
        </mxCell>
        <mxCell id="rPM3YHODY2QAmtToVd4L-89" value="Process is cancelled" style="shape=flexArrow;endArrow=classic;html=1;rounded=0;fontSize=28;align=center;spacingLeft=0;spacingRight=20;labelPosition=center;verticalLabelPosition=bottom;verticalAlign=top;spacingBottom=-3;spacingTop=20;" parent="1" edge="1">
          <mxGeometry width="50" height="50" relative="1" as="geometry">
            <mxPoint x="2540" y="3379.52" as="sourcePoint" />
            <mxPoint x="2640" y="3379.52" as="targetPoint" />
          </mxGeometry>
        </mxCell>
      </root>
    </mxGraphModel>
  </diagram>
  <diagram id="eaOuImJbzNtsbQJY6gVQ" name="Architecture">
    <mxGraphModel dx="1434" dy="804" grid="1" gridSize="10" guides="1" tooltips="1" connect="1" arrows="1" fold="1" page="1" pageScale="1" pageWidth="827" pageHeight="1169" math="0" shadow="0">
      <root>
        <mxCell id="0" />
        <mxCell id="1" parent="0" />
        <mxCell id="eJ82GMnhVTM4HftklKR5-3" style="edgeStyle=orthogonalEdgeStyle;rounded=0;orthogonalLoop=1;jettySize=auto;html=1;entryX=0;entryY=0.5;entryDx=0;entryDy=0;" edge="1" parent="1" source="eJ82GMnhVTM4HftklKR5-1" target="eJ82GMnhVTM4HftklKR5-2">
          <mxGeometry relative="1" as="geometry" />
        </mxCell>
        <mxCell id="eJ82GMnhVTM4HftklKR5-1" value="Front-end views" style="rounded=0;whiteSpace=wrap;html=1;" vertex="1" parent="1">
          <mxGeometry x="70" y="220" width="120" height="60" as="geometry" />
        </mxCell>
        <mxCell id="eJ82GMnhVTM4HftklKR5-5" style="edgeStyle=orthogonalEdgeStyle;rounded=0;orthogonalLoop=1;jettySize=auto;html=1;entryX=0.5;entryY=1;entryDx=0;entryDy=0;entryPerimeter=0;" edge="1" parent="1" source="eJ82GMnhVTM4HftklKR5-2" target="eJ82GMnhVTM4HftklKR5-4">
          <mxGeometry relative="1" as="geometry" />
        </mxCell>
        <mxCell id="eJ82GMnhVTM4HftklKR5-37" value="Task Id" style="edgeLabel;html=1;align=center;verticalAlign=middle;resizable=0;points=[];" vertex="1" connectable="0" parent="eJ82GMnhVTM4HftklKR5-5">
          <mxGeometry x="-0.2976" y="-2" relative="1" as="geometry">
            <mxPoint x="11" y="-12" as="offset" />
          </mxGeometry>
        </mxCell>
        <mxCell id="eJ82GMnhVTM4HftklKR5-17" style="edgeStyle=orthogonalEdgeStyle;rounded=0;orthogonalLoop=1;jettySize=auto;html=1;entryX=1;entryY=0.75;entryDx=0;entryDy=0;" edge="1" parent="1" source="eJ82GMnhVTM4HftklKR5-2" target="eJ82GMnhVTM4HftklKR5-1">
          <mxGeometry relative="1" as="geometry">
            <Array as="points">
              <mxPoint x="290" y="265" />
              <mxPoint x="290" y="265" />
            </Array>
          </mxGeometry>
        </mxCell>
        <mxCell id="eJ82GMnhVTM4HftklKR5-32" value="&lt;div style=&quot;text-align: left;&quot;&gt;Create new task;&lt;br&gt;delete completed task;&lt;/div&gt;&lt;div style=&quot;text-align: left;&quot;&gt;delete canceled task&lt;/div&gt;" style="edgeStyle=orthogonalEdgeStyle;rounded=0;orthogonalLoop=1;jettySize=auto;html=1;entryX=-0.001;entryY=0.56;entryDx=0;entryDy=0;entryPerimeter=0;exitX=0.5;exitY=1;exitDx=0;exitDy=0;" edge="1" parent="1" source="eJ82GMnhVTM4HftklKR5-2" target="eJ82GMnhVTM4HftklKR5-29">
          <mxGeometry x="0.4116" y="20" relative="1" as="geometry">
            <Array as="points">
              <mxPoint x="380" y="630" />
              <mxPoint x="780" y="630" />
            </Array>
            <mxPoint as="offset" />
          </mxGeometry>
        </mxCell>
        <mxCell id="eJ82GMnhVTM4HftklKR5-2" value="Task Hub" style="rounded=0;whiteSpace=wrap;html=1;" vertex="1" parent="1">
          <mxGeometry x="320" y="220" width="120" height="60" as="geometry" />
        </mxCell>
        <mxCell id="eJ82GMnhVTM4HftklKR5-8" style="edgeStyle=orthogonalEdgeStyle;rounded=0;orthogonalLoop=1;jettySize=auto;html=1;entryX=0;entryY=0.5;entryDx=0;entryDy=0;" edge="1" parent="1" source="eJ82GMnhVTM4HftklKR5-4" target="eJ82GMnhVTM4HftklKR5-6">
          <mxGeometry relative="1" as="geometry">
            <mxPoint x="770" y="310" as="targetPoint" />
            <Array as="points">
              <mxPoint x="740" y="250" />
              <mxPoint x="740" y="250" />
            </Array>
          </mxGeometry>
        </mxCell>
        <mxCell id="eJ82GMnhVTM4HftklKR5-38" value="Task Id" style="edgeLabel;html=1;align=center;verticalAlign=middle;resizable=0;points=[];" vertex="1" connectable="0" parent="eJ82GMnhVTM4HftklKR5-8">
          <mxGeometry x="-0.1562" y="-2" relative="1" as="geometry">
            <mxPoint x="3" y="-12" as="offset" />
          </mxGeometry>
        </mxCell>
        <mxCell id="eJ82GMnhVTM4HftklKR5-4" value="Encoding queue" style="shape=cylinder3;whiteSpace=wrap;html=1;boundedLbl=1;backgroundOutline=1;size=15;rotation=90;horizontal=0;" vertex="1" parent="1">
          <mxGeometry x="560" y="185" width="60" height="130" as="geometry" />
        </mxCell>
        <mxCell id="eJ82GMnhVTM4HftklKR5-50" style="edgeStyle=orthogonalEdgeStyle;rounded=0;orthogonalLoop=1;jettySize=auto;html=1;entryX=0.5;entryY=0;entryDx=0;entryDy=0;entryPerimeter=0;" edge="1" parent="1" source="eJ82GMnhVTM4HftklKR5-6" target="eJ82GMnhVTM4HftklKR5-29">
          <mxGeometry relative="1" as="geometry">
            <mxPoint x="870" y="460" as="targetPoint" />
            <Array as="points">
              <mxPoint x="810" y="560" />
              <mxPoint x="810" y="560" />
            </Array>
          </mxGeometry>
        </mxCell>
        <mxCell id="eJ82GMnhVTM4HftklKR5-51" value="Get task raw data;&lt;br&gt;write task encoded data" style="edgeLabel;html=1;align=left;verticalAlign=middle;resizable=0;points=[];" vertex="1" connectable="0" parent="eJ82GMnhVTM4HftklKR5-50">
          <mxGeometry x="-0.2167" y="-2" relative="1" as="geometry">
            <mxPoint x="-58" y="13" as="offset" />
          </mxGeometry>
        </mxCell>
        <mxCell id="eJ82GMnhVTM4HftklKR5-6" value="Encoding service" style="rounded=0;whiteSpace=wrap;html=1;" vertex="1" parent="1">
          <mxGeometry x="750" y="220" width="120" height="60" as="geometry" />
        </mxCell>
        <mxCell id="eJ82GMnhVTM4HftklKR5-44" value="Task Id" style="edgeStyle=orthogonalEdgeStyle;rounded=0;orthogonalLoop=1;jettySize=auto;html=1;entryX=0;entryY=0.5;entryDx=0;entryDy=0;" edge="1" parent="1" source="eJ82GMnhVTM4HftklKR5-9" target="eJ82GMnhVTM4HftklKR5-14">
          <mxGeometry x="-0.037" y="10" relative="1" as="geometry">
            <mxPoint as="offset" />
          </mxGeometry>
        </mxCell>
        <mxCell id="eJ82GMnhVTM4HftklKR5-9" value="Output queue&lt;br&gt;(supports scheduling)" style="shape=cylinder3;whiteSpace=wrap;html=1;boundedLbl=1;backgroundOutline=1;size=15;rotation=90;horizontal=0;" vertex="1" parent="1">
          <mxGeometry x="1270" y="185" width="60" height="130" as="geometry" />
        </mxCell>
        <mxCell id="eJ82GMnhVTM4HftklKR5-43" value="Task Id, timeout" style="edgeStyle=orthogonalEdgeStyle;rounded=0;orthogonalLoop=1;jettySize=auto;html=1;entryX=0.5;entryY=1;entryDx=0;entryDy=0;entryPerimeter=0;" edge="1" parent="1" source="eJ82GMnhVTM4HftklKR5-11" target="eJ82GMnhVTM4HftklKR5-9">
          <mxGeometry x="-0.0769" y="10" relative="1" as="geometry">
            <mxPoint as="offset" />
          </mxGeometry>
        </mxCell>
        <mxCell id="eJ82GMnhVTM4HftklKR5-52" style="edgeStyle=orthogonalEdgeStyle;rounded=0;orthogonalLoop=1;jettySize=auto;html=1;entryX=1.002;entryY=0.439;entryDx=0;entryDy=0;entryPerimeter=0;exitX=0.5;exitY=1;exitDx=0;exitDy=0;" edge="1" parent="1" source="eJ82GMnhVTM4HftklKR5-11" target="eJ82GMnhVTM4HftklKR5-29">
          <mxGeometry relative="1" as="geometry">
            <Array as="points">
              <mxPoint x="1040" y="620" />
            </Array>
          </mxGeometry>
        </mxCell>
        <mxCell id="eJ82GMnhVTM4HftklKR5-53" value="&lt;div style=&quot;text-align: center;&quot;&gt;&lt;span style=&quot;text-align: left;&quot;&gt;Get last sent character number&lt;/span&gt;&lt;/div&gt;" style="edgeLabel;html=1;align=center;verticalAlign=middle;resizable=0;points=[];" vertex="1" connectable="0" parent="eJ82GMnhVTM4HftklKR5-52">
          <mxGeometry x="-0.5243" y="1" relative="1" as="geometry">
            <mxPoint x="9" y="-3" as="offset" />
          </mxGeometry>
        </mxCell>
        <mxCell id="eJ82GMnhVTM4HftklKR5-11" value="Output scheduler" style="rounded=0;whiteSpace=wrap;html=1;" vertex="1" parent="1">
          <mxGeometry x="980" y="220" width="120" height="60" as="geometry" />
        </mxCell>
        <mxCell id="eJ82GMnhVTM4HftklKR5-45" value="Task Id" style="edgeStyle=orthogonalEdgeStyle;rounded=0;orthogonalLoop=1;jettySize=auto;html=1;entryX=0.5;entryY=0;entryDx=0;entryDy=0;exitX=0.424;exitY=0.008;exitDx=0;exitDy=0;exitPerimeter=0;" edge="1" parent="1" source="eJ82GMnhVTM4HftklKR5-14" target="eJ82GMnhVTM4HftklKR5-11">
          <mxGeometry x="-0.0156" y="-10" relative="1" as="geometry">
            <Array as="points">
              <mxPoint x="1491" y="180" />
              <mxPoint x="1040" y="180" />
            </Array>
            <mxPoint as="offset" />
          </mxGeometry>
        </mxCell>
        <mxCell id="eJ82GMnhVTM4HftklKR5-47" value="Task Id, next character, its index, total encoded string length" style="edgeStyle=orthogonalEdgeStyle;rounded=0;orthogonalLoop=1;jettySize=auto;html=1;exitX=0.642;exitY=-0.033;exitDx=0;exitDy=0;exitPerimeter=0;" edge="1" parent="1" source="eJ82GMnhVTM4HftklKR5-14" target="eJ82GMnhVTM4HftklKR5-2">
          <mxGeometry x="0.0072" y="-10" relative="1" as="geometry">
            <Array as="points">
              <mxPoint x="1517" y="120" />
              <mxPoint x="380" y="120" />
            </Array>
            <mxPoint as="offset" />
          </mxGeometry>
        </mxCell>
        <mxCell id="eJ82GMnhVTM4HftklKR5-54" style="edgeStyle=orthogonalEdgeStyle;rounded=0;orthogonalLoop=1;jettySize=auto;html=1;entryX=1.002;entryY=0.749;entryDx=0;entryDy=0;entryPerimeter=0;" edge="1" parent="1" source="eJ82GMnhVTM4HftklKR5-14" target="eJ82GMnhVTM4HftklKR5-29">
          <mxGeometry relative="1" as="geometry">
            <Array as="points">
              <mxPoint x="1500" y="645" />
            </Array>
          </mxGeometry>
        </mxCell>
        <mxCell id="eJ82GMnhVTM4HftklKR5-55" value="&lt;span style=&quot;color: rgb(0, 0, 0); font-family: Helvetica; font-size: 11px; font-style: normal; font-variant-ligatures: normal; font-variant-caps: normal; font-weight: 400; letter-spacing: normal; orphans: 2; text-indent: 0px; text-transform: none; widows: 2; word-spacing: 0px; -webkit-text-stroke-width: 0px; background-color: rgb(255, 255, 255); text-decoration-thickness: initial; text-decoration-style: initial; text-decoration-color: initial; float: none; display: inline !important;&quot;&gt;Read character to be sent;&lt;br&gt;&lt;/span&gt;&lt;div style=&quot;border-color: var(--border-color); color: rgb(0, 0, 0); font-family: Helvetica; font-size: 11px; font-style: normal; font-variant-ligatures: normal; font-variant-caps: normal; font-weight: 400; letter-spacing: normal; orphans: 2; text-indent: 0px; text-transform: none; widows: 2; word-spacing: 0px; -webkit-text-stroke-width: 0px; text-decoration-thickness: initial; text-decoration-style: initial; text-decoration-color: initial;&quot;&gt;update last sent character number&amp;nbsp;&lt;/div&gt;" style="edgeLabel;html=1;align=left;verticalAlign=middle;resizable=0;points=[];" vertex="1" connectable="0" parent="eJ82GMnhVTM4HftklKR5-54">
          <mxGeometry x="-0.7607" y="2" relative="1" as="geometry">
            <mxPoint x="-82" y="7" as="offset" />
          </mxGeometry>
        </mxCell>
        <mxCell id="eJ82GMnhVTM4HftklKR5-14" value="Output service" style="rounded=0;whiteSpace=wrap;html=1;" vertex="1" parent="1">
          <mxGeometry x="1440" y="220" width="120" height="60" as="geometry" />
        </mxCell>
        <mxCell id="eJ82GMnhVTM4HftklKR5-29" value="Task storage" style="shape=cylinder3;whiteSpace=wrap;html=1;boundedLbl=1;backgroundOutline=1;size=15;" vertex="1" parent="1">
          <mxGeometry x="780" y="585" width="60" height="80" as="geometry" />
        </mxCell>
        <mxCell id="eJ82GMnhVTM4HftklKR5-41" style="edgeStyle=orthogonalEdgeStyle;rounded=0;orthogonalLoop=1;jettySize=auto;html=1;exitX=1;exitY=0.5;exitDx=0;exitDy=0;" edge="1" parent="1" source="eJ82GMnhVTM4HftklKR5-6">
          <mxGeometry relative="1" as="geometry">
            <mxPoint x="930" y="249.58" as="sourcePoint" />
            <mxPoint x="980" y="250" as="targetPoint" />
            <Array as="points">
              <mxPoint x="950" y="250" />
              <mxPoint x="950" y="250" />
            </Array>
          </mxGeometry>
        </mxCell>
        <mxCell id="eJ82GMnhVTM4HftklKR5-42" value="Task Id" style="edgeLabel;html=1;align=center;verticalAlign=middle;resizable=0;points=[];" vertex="1" connectable="0" parent="eJ82GMnhVTM4HftklKR5-41">
          <mxGeometry x="-0.1562" y="-2" relative="1" as="geometry">
            <mxPoint x="3" y="-12" as="offset" />
          </mxGeometry>
        </mxCell>
      </root>
    </mxGraphModel>
  </diagram>
</mxfile>
